<svg width="48" height="46" viewBox="0 0 48 46" fill="none" xmlns="http://www.w3.org/2000/svg">
<g filter="url(#filter0_d_6_25)">
<path d="M42.2885 13.2619C41.5328 11.48 40.5328 9.81951 39.3188 8.33124C37.5243 6.06551 35.2849 4.21737 32.7479 2.90847C30.2109 1.59959 27.4337 0.859611 24.5995 0.737248C21.7652 0.614886 18.9379 1.11291 16.3036 2.19857C13.6695 3.28421 11.2881 4.93286 9.31622 7.036C7.34437 9.13913 5.82678 11.6491 4.86334 14.4007C3.8999 17.1522 3.51242 20.083 3.72645 23C3.94049 25.9172 4.75114 28.7544 6.10509 31.3251C7.45903 33.8959 9.32556 36.1418 11.5818 37.915C13.0295 39.0755 14.6292 40.0189 16.3333 40.7172C18.7224 41.7269 21.2795 42.2469 23.8615 42.2484C29.1912 42.2363 34.2988 40.0454 38.0648 36.156C41.8307 32.2667 43.9476 26.9963 43.9515 21.5C43.9554 18.6649 43.3892 15.8598 42.2885 13.2619ZM23.8467 4.94716C26.1654 4.94692 28.4561 5.46953 30.5582 6.47841C30.0456 6.70683 29.5066 6.86637 28.9545 6.95311C27.138 7.22428 25.4552 8.094 24.1573 9.43247C22.8594 10.7709 22.016 12.5063 21.753 14.3797C21.6376 15.4303 21.1742 16.4077 20.4412 17.1469C19.7081 17.8862 18.7502 18.3419 17.7291 18.4375C15.9125 18.7087 14.2297 19.5784 12.9318 20.9169C11.6339 22.2554 10.7905 23.9907 10.5276 25.8641C10.4385 26.863 10.0252 27.8018 9.35455 28.5284C8.19733 26.0069 7.67748 23.2243 7.84337 20.4399C8.00926 17.6555 8.85549 14.9596 10.3033 12.603C11.7511 10.2465 13.7535 8.30599 16.1241 6.96205C18.4947 5.61812 21.1564 4.91447 23.8615 4.91654L23.8467 4.94716ZM11.567 32.2187C11.7452 32.0503 11.9233 31.8972 12.1015 31.7134C13.4225 30.3927 14.2704 28.6492 14.507 26.7675C14.6029 25.7097 15.0608 24.7217 15.7988 23.9806C16.509 23.2184 17.4648 22.7499 18.4863 22.6637C20.3029 22.3926 21.9857 21.5228 23.2836 20.1843C24.5815 18.8459 25.4249 17.1105 25.6879 15.2372C25.7522 14.1308 26.2125 13.0885 26.9797 12.3125C27.7074 11.565 28.6723 11.1137 29.697 11.0415C31.3658 10.8048 32.9222 10.0397 34.1515 8.85186C35.5513 10.0494 36.7371 11.49 37.6557 13.1087C37.5993 13.1873 37.5346 13.2593 37.4627 13.3231C36.754 14.0921 35.7994 14.5708 34.7751 14.6706C32.9566 14.9371 31.2713 15.8053 29.9725 17.1445C28.6739 18.4839 27.832 20.2219 27.5736 22.0972C27.4689 23.1513 27.0141 24.1357 26.2863 24.8836C25.5582 25.6316 24.602 26.097 23.5794 26.2009C21.7575 26.47 20.0685 27.338 18.763 28.6759C17.4576 30.0139 16.6055 31.7503 16.3333 33.6275C16.2534 34.3758 16.0041 35.0944 15.6057 35.7253C14.0823 34.7925 12.7179 33.6079 11.567 32.2187ZM23.8467 38.1294C22.34 38.131 20.8404 37.9145 19.3921 37.4862C19.8876 36.5338 20.2097 35.4958 20.3424 34.4237C20.4465 33.3719 20.8992 32.3893 21.6241 31.6418C22.349 30.8942 23.3019 30.4273 24.3218 30.32C26.141 30.0519 27.8272 29.1835 29.1281 27.8447C30.4288 26.5061 31.2745 24.7689 31.5382 22.8934C31.6423 21.8416 32.095 20.859 32.8199 20.1114C33.5448 19.3639 34.4976 18.897 35.5176 18.7897C36.8866 18.6061 38.1915 18.0804 39.3188 17.2584C39.9448 19.7052 40.0189 22.2673 39.5356 24.7482C39.0522 27.2292 38.0241 29.5631 36.5304 31.5707C35.0366 33.5782 33.1169 35.2064 30.9181 36.33C28.7195 37.4536 26.3005 38.043 23.8467 38.0528V38.1294Z" fill="#60D59D"/>
<path d="M6.10509 31.3251C7.45903 33.8959 9.32556 36.1418 11.5818 37.915C13.0295 39.0755 14.6292 40.0189 16.3333 40.7172C18.7224 41.7269 21.2795 42.2469 23.8615 42.2484C29.1912 42.2363 34.2988 40.0454 38.0648 36.156C41.8307 32.2667 43.9476 26.9963 43.9515 21.5L6.10509 31.3251ZM6.10509 31.3251L6.54748 31.0921C7.86911 33.6016 9.69046 35.7926 11.8908 37.5219L11.8946 37.5248C13.3052 38.6557 14.8635 39.5746 16.5229 40.2545L16.528 40.2566L16.528 40.2566C18.8559 41.2404 21.3469 41.7469 23.8618 41.7484M6.10509 31.3251L6.54748 31.0921C5.22583 28.5828 4.43415 25.8124 4.22511 22.9634C4.01609 20.1145 4.39454 17.2524 5.33525 14.5659L4.91029 14.4171L5.33525 14.5659C6.27594 11.8793 7.75731 9.42972 9.68098 7.37799L9.68098 7.37798C11.6046 5.32628 13.9268 3.71895 16.4941 2.66085C19.0616 1.60274 21.8165 1.11757 24.5779 1.23678C27.3393 1.356 30.0456 2.07695 32.5186 3.35282C34.9917 4.62873 37.1759 6.43092 38.9268 8.64167L38.9268 8.6417L38.9313 8.64729C40.1152 10.0986 41.0908 11.7184 41.8282 13.4571M23.8618 41.7484C23.8613 41.7484 23.8608 41.7484 23.8604 41.7484L23.8615 42.2481L23.8618 41.7484ZM23.8618 41.7484C29.0536 41.7362 34.0322 39.602 37.7056 35.8082C41.3797 32.0136 43.4477 26.8684 43.4515 21.4996V21.4993C43.4553 18.7311 42.9025 15.9927 41.8282 13.4571M41.8282 13.4571L42.2876 13.2622L41.8281 13.4569C41.8281 13.457 41.8281 13.457 41.8282 13.4571ZM30.7745 6.02764C28.8439 5.10105 26.7585 4.57169 24.6353 4.46662L24.6593 4.41714L23.8619 4.41654C21.0696 4.4144 18.3228 5.14079 15.8775 6.52709C13.4323 7.91333 11.3686 9.91392 9.8773 12.3412L9.8773 12.3412C8.386 14.7686 7.515 17.5443 7.34426 20.4102C7.17352 23.276 7.70849 26.1405 8.90012 28.737L9.21306 29.4189L9.72195 28.8676C10.4657 28.0618 10.9233 27.0239 11.0244 25.9215C11.2748 24.1561 12.0705 22.5233 13.2908 21.265C14.5104 20.0072 16.0886 19.1909 17.7899 18.934C18.9243 18.8244 19.9853 18.3168 20.7962 17.499C21.6083 16.68 22.1202 15.6002 22.2492 14.442C22.4988 12.6747 23.2949 11.04 24.5162 9.78054C25.739 8.51957 27.3221 7.70234 29.0284 7.44765L29.0321 7.44705C29.6278 7.35346 30.2091 7.18135 30.7617 6.93511L31.7488 6.49523L30.7745 6.02764ZM11.2235 31.8554L10.8832 32.1771L11.1819 32.5377C12.3676 33.9688 13.7738 35.1899 15.3446 36.1517L15.7652 36.4092L16.0285 35.9923C16.4663 35.2989 16.7404 34.5105 16.8295 33.6903C17.0881 31.9195 17.8926 30.2841 19.1209 29.025C20.3486 27.7669 21.934 26.9518 23.6417 26.6972C24.7787 26.5787 25.8388 26.0602 26.6446 25.2323C27.4504 24.4043 27.9527 23.3176 28.0702 22.1564C28.3157 20.3883 29.1101 18.7523 30.3315 17.4926C31.5521 16.234 33.1329 15.4192 34.8362 15.167C35.9724 15.0531 37.0284 14.5238 37.8144 13.6792C37.9064 13.5951 37.9892 13.5015 38.0618 13.4004L38.2486 13.1404L38.0906 12.8619C37.1436 11.1934 35.9208 9.70757 34.4765 8.47193L34.1311 8.17635L33.8041 8.49229C32.6535 9.60399 31.2 10.3196 29.6434 10.5441C28.5017 10.629 27.4301 11.1337 26.6227 11.9624C25.7743 12.8212 25.2658 13.9699 25.19 15.187C24.9384 16.9496 24.1432 18.5797 22.9246 19.8363C21.7055 21.0935 20.1281 21.9097 18.4277 22.1669C17.2892 22.2672 16.2275 22.7899 15.4386 23.6337C14.6225 24.4561 14.1176 25.5475 14.0098 26.7134C13.7855 28.4836 12.9872 30.1209 11.748 31.3598L11.748 31.3598L11.7426 31.3654C11.6334 31.478 11.533 31.5699 11.4215 31.6719C11.36 31.7283 11.2951 31.7877 11.2235 31.8554ZM23.8472 38.6294L24.3467 38.6288V38.5431C26.708 38.4605 29.0264 37.8583 31.1456 36.7752C33.4137 35.6162 35.3926 33.9374 36.9315 31.8692L36.5471 31.5832L36.9315 31.8692C38.4704 29.8009 39.5289 27.3975 40.0263 24.8438C40.5238 22.2902 40.4476 19.6532 39.8032 17.1345L39.6203 16.4198L39.0242 16.8544C37.9653 17.6265 36.7411 18.12 35.4578 18.2932C34.3222 18.4145 33.2643 18.9349 32.4609 19.7634C31.6586 20.5908 31.1587 21.6752 31.0417 22.8336C30.7909 24.6019 29.9929 26.2373 28.7695 27.4963C27.5463 28.7551 25.9637 29.5704 24.2587 29.8239C23.1244 29.9458 22.0677 30.466 21.2652 31.2937C20.4618 32.1221 19.9617 33.2082 19.8455 34.3682C19.7195 35.3794 19.4155 36.358 18.9485 37.2555L18.6686 37.7937L19.2503 37.9657C20.7447 38.4076 22.2922 38.6311 23.8472 38.6294Z" stroke="black"/>
<path d="M6.10509 31.3251C7.45903 33.8959 9.32556 36.1418 11.5818 37.915C13.0295 39.0755 14.6292 40.0189 16.3333 40.7172C18.7224 41.7269 21.2795 42.2469 23.8615 42.2484C29.1912 42.2363 34.2988 40.0454 38.0648 36.156C41.8307 32.2667 43.9476 26.9963 43.9515 21.5L6.10509 31.3251ZM6.10509 31.3251L6.54748 31.0921C7.86911 33.6016 9.69046 35.7926 11.8908 37.5219L11.8946 37.5248C13.3052 38.6557 14.8635 39.5746 16.5229 40.2545L16.528 40.2566L16.528 40.2566C18.8559 41.2404 21.3469 41.7469 23.8618 41.7484M6.10509 31.3251L6.54748 31.0921C5.22583 28.5828 4.43415 25.8124 4.22511 22.9634C4.01609 20.1145 4.39454 17.2524 5.33525 14.5659L4.91029 14.4171L5.33525 14.5659C6.27594 11.8793 7.75731 9.42972 9.68098 7.37799L9.68098 7.37798C11.6046 5.32628 13.9268 3.71895 16.4941 2.66085C19.0616 1.60274 21.8165 1.11757 24.5779 1.23678C27.3393 1.356 30.0456 2.07695 32.5186 3.35282C34.9917 4.62873 37.1759 6.43092 38.9268 8.64167L38.9268 8.6417L38.9313 8.64729C40.1152 10.0986 41.0908 11.7184 41.8282 13.4571M23.8618 41.7484C23.8613 41.7484 23.8608 41.7484 23.8604 41.7484L23.8615 42.2481L23.8618 41.7484ZM23.8618 41.7484C29.0536 41.7362 34.0322 39.602 37.7056 35.8082C41.3797 32.0136 43.4477 26.8684 43.4515 21.4996V21.4993C43.4553 18.7311 42.9025 15.9927 41.8282 13.4571M41.8282 13.4571L42.2876 13.2622L41.8281 13.4569C41.8281 13.457 41.8281 13.457 41.8282 13.4571ZM30.7745 6.02764C28.8439 5.10105 26.7585 4.57169 24.6353 4.46662L24.6593 4.41714L23.8619 4.41654C21.0696 4.4144 18.3228 5.14079 15.8775 6.52709C13.4323 7.91333 11.3686 9.91392 9.8773 12.3412L9.8773 12.3412C8.386 14.7686 7.515 17.5443 7.34426 20.4102C7.17352 23.276 7.70849 26.1405 8.90012 28.737L9.21306 29.4189L9.72195 28.8676C10.4657 28.0618 10.9233 27.0239 11.0244 25.9215C11.2748 24.1561 12.0705 22.5233 13.2908 21.265C14.5104 20.0072 16.0886 19.1909 17.7899 18.934C18.9243 18.8244 19.9853 18.3168 20.7962 17.499C21.6083 16.68 22.1202 15.6002 22.2492 14.442C22.4988 12.6747 23.2949 11.04 24.5162 9.78054C25.739 8.51957 27.3221 7.70234 29.0284 7.44765L29.0321 7.44705C29.6278 7.35346 30.2091 7.18135 30.7617 6.93511L31.7488 6.49523L30.7745 6.02764ZM11.2235 31.8554L10.8832 32.1771L11.1819 32.5377C12.3676 33.9688 13.7738 35.1899 15.3446 36.1517L15.7652 36.4092L16.0285 35.9923C16.4663 35.2989 16.7404 34.5105 16.8295 33.6903C17.0881 31.9195 17.8926 30.2841 19.1209 29.025C20.3486 27.7669 21.934 26.9518 23.6417 26.6972C24.7787 26.5787 25.8388 26.0602 26.6446 25.2323C27.4504 24.4043 27.9527 23.3176 28.0702 22.1564C28.3157 20.3883 29.1101 18.7523 30.3315 17.4926C31.5521 16.234 33.1329 15.4192 34.8362 15.167C35.9724 15.0531 37.0284 14.5238 37.8144 13.6792C37.9064 13.5951 37.9892 13.5015 38.0618 13.4004L38.2486 13.1404L38.0906 12.8619C37.1436 11.1934 35.9208 9.70757 34.4765 8.47193L34.1311 8.17635L33.8041 8.49229C32.6535 9.60399 31.2 10.3196 29.6434 10.5441C28.5017 10.629 27.4301 11.1337 26.6227 11.9624C25.7743 12.8212 25.2658 13.9699 25.19 15.187C24.9384 16.9496 24.1432 18.5797 22.9246 19.8363C21.7055 21.0935 20.1281 21.9097 18.4277 22.1669C17.2892 22.2672 16.2275 22.7899 15.4386 23.6337C14.6225 24.4561 14.1176 25.5475 14.0098 26.7134C13.7855 28.4836 12.9872 30.1209 11.748 31.3598L11.748 31.3598L11.7426 31.3654C11.6334 31.478 11.533 31.5699 11.4215 31.6719C11.36 31.7283 11.2951 31.7877 11.2235 31.8554ZM23.8472 38.6294L24.3467 38.6288V38.5431C26.708 38.4605 29.0264 37.8583 31.1456 36.7752C33.4137 35.6162 35.3926 33.9374 36.9315 31.8692L36.5471 31.5832L36.9315 31.8692C38.4704 29.8009 39.5289 27.3975 40.0263 24.8438C40.5238 22.2902 40.4476 19.6532 39.8032 17.1345L39.6203 16.4198L39.0242 16.8544C37.9653 17.6265 36.7411 18.12 35.4578 18.2932C34.3222 18.4145 33.2643 18.9349 32.4609 19.7634C31.6586 20.5908 31.1587 21.6752 31.0417 22.8336C30.7909 24.6019 29.9929 26.2373 28.7695 27.4963C27.5463 28.7551 25.9637 29.5704 24.2587 29.8239C23.1244 29.9458 22.0677 30.466 21.2652 31.2937C20.4618 32.1221 19.9617 33.2082 19.8455 34.3682C19.7195 35.3794 19.4155 36.358 18.9485 37.2555L18.6686 37.7937L19.2503 37.9657C20.7447 38.4076 22.2922 38.6311 23.8472 38.6294Z" stroke="black" stroke-opacity="0.2"/>
</g>
<defs>
<filter id="filter0_d_6_25" x="-0.330811" y="0.719116" width="48.2823" height="49.5293" filterUnits="userSpaceOnUse" color-interpolation-filters="sRGB">
<feFlood flood-opacity="0" result="BackgroundImageFix"/>
<feColorMatrix in="SourceAlpha" type="matrix" values="0 0 0 0 0 0 0 0 0 0 0 0 0 0 0 0 0 0 127 0" result="hardAlpha"/>
<feOffset dy="4"/>
<feGaussianBlur stdDeviation="2"/>
<feComposite in2="hardAlpha" operator="out"/>
<feColorMatrix type="matrix" values="0 0 0 0 0 0 0 0 0 0 0 0 0 0 0 0 0 0 0.25 0"/>
<feBlend mode="normal" in2="BackgroundImageFix" result="effect1_dropShadow_6_25"/>
<feBlend mode="normal" in="SourceGraphic" in2="effect1_dropShadow_6_25" result="shape"/>
</filter>
</defs>
</svg>
