<svg width="49" height="49" viewBox="0 0 49 49" fill="none" xmlns="http://www.w3.org/2000/svg">
<path d="M42.2885 16.262C41.5328 14.4802 40.5328 12.8196 39.3188 11.3314C37.5243 9.06563 35.2849 7.21749 32.7479 5.90859C30.2109 4.59971 27.4338 3.85973 24.5995 3.73737C21.7652 3.61501 18.9379 4.11303 16.3036 5.19869C13.6695 6.28433 11.2881 7.93298 9.31622 10.0361C7.34437 12.1392 5.82678 14.6492 4.86334 17.4008C3.8999 20.1523 3.51242 23.0831 3.72645 26.0001C3.94049 28.9173 4.75114 31.7546 6.10509 34.3252C7.45903 36.896 9.32556 39.1419 11.5818 40.9151C13.0295 42.0756 14.6292 43.019 16.3333 43.7173C18.7224 44.727 21.2795 45.247 23.8615 45.2485C29.1912 45.2365 34.2988 43.0455 38.0648 39.1562C41.8307 35.2668 43.9476 29.9964 43.9515 24.5001C43.9554 21.665 43.3892 18.8599 42.2885 16.262ZM23.8467 7.94728C26.1654 7.94704 28.4561 8.46965 30.5582 9.47853C30.0456 9.70695 29.5066 9.86649 28.9545 9.95323C27.138 10.2244 25.4552 11.0941 24.1573 12.4326C22.8594 13.771 22.016 15.5065 21.753 17.3798C21.6376 18.4304 21.1742 19.4078 20.4412 20.1471C19.7081 20.8864 18.7502 21.3421 17.7291 21.4376C15.9125 21.7088 14.2297 22.5785 12.9318 23.917C11.6339 25.2555 10.7905 26.9908 10.5276 28.8642C10.4385 29.8632 10.0252 30.802 9.35455 31.5285C8.19733 29.007 7.67748 26.2245 7.84337 23.44C8.00926 20.6556 8.85549 17.9597 10.3033 15.6031C11.7511 13.2466 13.7535 11.3061 16.1241 9.96218C18.4947 8.61824 21.1564 7.91459 23.8615 7.91666L23.8467 7.94728ZM11.567 35.2189C11.7452 35.0504 11.9233 34.8973 12.1015 34.7135C13.4225 33.3928 14.2704 31.6494 14.507 29.7676C14.6029 28.7098 15.0608 27.7219 15.7988 26.9807C16.509 26.2185 17.4648 25.7501 18.4864 25.6639C20.3029 25.3927 21.9857 24.5229 23.2836 23.1845C24.5815 21.846 25.4249 20.1106 25.6879 18.2373C25.7522 17.131 26.2125 16.0886 26.9797 15.3126C27.7074 14.5651 28.6723 14.1138 29.697 14.0417C31.3658 13.8049 32.9222 13.0398 34.1515 11.852C35.5513 13.0495 36.7371 14.4902 37.6557 16.1089C37.5993 16.1874 37.5346 16.2594 37.4627 16.3232C36.754 17.0922 35.7994 17.5709 34.7751 17.6707C32.9566 17.9372 31.2713 18.8054 29.9725 20.1446C28.6739 21.484 27.832 23.222 27.5736 25.0973C27.4689 26.1514 27.0141 27.1358 26.2863 27.8837C25.5582 28.6317 24.602 29.0971 23.5794 29.201C21.7575 29.4701 20.0685 30.3382 18.763 31.676C17.4576 33.014 16.6055 34.7505 16.3333 36.6276C16.2534 37.3759 16.0041 38.0946 15.6057 38.7254C14.0823 37.7926 12.7179 36.608 11.567 35.2189ZM23.8467 41.1295C22.34 41.1312 20.8404 40.9147 19.3921 40.4864C19.8876 39.5339 20.2097 38.4959 20.3424 37.4239C20.4465 36.372 20.8992 35.3894 21.6241 34.6419C22.349 33.8943 23.3019 33.4275 24.3218 33.3201C26.141 33.052 27.8272 32.1836 29.1281 30.8448C30.4288 29.5062 31.2745 27.769 31.5382 25.8935C31.6423 24.8417 32.095 23.8591 32.8199 23.1116C33.5448 22.364 34.4976 21.8971 35.5176 21.7898C36.8866 21.6062 38.1915 21.0805 39.3188 20.2585C39.9448 22.7053 40.0189 25.2674 39.5356 27.7484C39.0522 30.2293 38.0241 32.5632 36.5304 34.5708C35.0366 36.5783 33.1169 38.2065 30.9181 39.3301C28.7195 40.4537 26.3005 41.0431 23.8467 41.0529V41.1295Z" fill="#60D49D"/>
</svg>
